<svg width="465" height="1192" viewBox="0 0 465 1192" fill="none" xmlns="http://www.w3.org/2000/svg">
<path fill-rule="evenodd" clip-rule="evenodd" d="M223.475 -41.5441C223.352 -29.4907 223.603 -25.1352 224.292 -27.3277C225.109 -29.9224 225.289 -29.6865 225.302 -26.005C225.326 -18.8357 227.736 -16.3526 234.092 -16.9423C237.295 -17.2393 241.048 -16.818 242.432 -16.0051C243.816 -15.1942 249.932 -15.3817 256.023 -16.4221L267.098 -18.3134L255.202 -18.6083C248.66 -18.7704 242.491 -19.8172 241.494 -20.9334C240.289 -22.2814 238.636 -22.136 236.563 -20.4996C234.411 -18.7999 232.574 -18.6757 230.639 -20.0994C227.699 -22.2624 227.209 -25.1815 225.792 -48.9156C224.861 -64.4989 223.668 -60.7057 223.475 -41.5441ZM447.809 -47.336C447.809 -40.9649 448.149 -35.7522 448.564 -35.7543C448.98 -35.7543 449.163 -31.0155 448.97 -25.2236C448.768 -19.1011 449.045 -14.6908 449.632 -14.6908C450.186 -14.6908 450.404 -12.7911 450.113 -10.468C449.276 -3.77264 451.595 0.0521088 456.49 0.0521088C459.736 0.0521088 460.897 -0.779816 460.897 -3.1071C460.897 -4.84466 460.417 -6.2663 459.831 -6.2663C459.245 -6.2663 459.045 -5.31854 459.387 -4.16016C460.398 -0.737694 455.225 -1.74653 453.839 -5.24061C453.118 -7.05821 452.261 -18.2565 451.844 -31.2872C451.443 -43.8608 450.796 -55.2213 450.409 -56.5335C448.829 -61.8809 447.809 -58.2731 447.809 -47.336ZM0.00134461 -51.5482C0.0214796 -48.0731 0.246992 -46.9063 0.502707 -48.9556C0.758422 -51.0048 0.741307 -53.8481 0.465457 -55.274C0.189607 -56.6998 -0.0187904 -55.0234 0.00134461 -51.5482ZM270.621 -53.5301C270.621 -51.7251 271.081 -50.8427 271.644 -51.5693C272.207 -52.298 272.407 -53.7744 272.088 -54.8528C271.225 -57.774 270.621 -57.2306 270.621 -53.5301ZM338.153 -53.4796C338.201 -51.0259 338.44 -50.5268 338.761 -52.2053C339.052 -53.726 339.016 -55.5436 338.682 -56.2428C338.347 -56.942 338.11 -55.6994 338.153 -53.4796ZM107.27 -49.4421C106.871 -45.967 106.901 -38.3849 107.336 -32.593C108.369 -18.8736 109.261 -27.6288 108.517 -44.1768C108.057 -54.3894 107.91 -55.0128 107.27 -49.4421ZM218.344 -45.2298C218.367 -40.5963 218.746 -33.0142 219.187 -28.3807C219.925 -20.6154 219.995 -21.0345 220.073 -33.7345C220.119 -41.3124 219.74 -48.8945 219.23 -50.5836C218.575 -52.7466 218.313 -51.1628 218.344 -45.2298ZM334.32 -42.0706C334.32 -36.8579 334.517 -34.7244 334.757 -37.3318C334.997 -39.9392 334.997 -44.202 334.757 -46.8094C334.517 -49.4168 334.32 -47.2833 334.32 -42.0706ZM339.354 -37.8583C339.354 -32.6457 339.55 -30.5121 339.791 -33.1195C340.031 -35.7269 340.031 -39.9898 339.791 -42.5972C339.55 -45.2045 339.354 -43.071 339.354 -37.8583ZM444.118 -41.0175C444.118 -39.28 444.495 -37.8583 444.957 -37.8583C445.418 -37.8583 445.796 -39.28 445.796 -41.0175C445.796 -42.7551 445.418 -44.1768 444.957 -44.1768C444.495 -44.1768 444.118 -42.7551 444.118 -41.0175ZM453.036 -33.4881C453.235 -32.2434 453.828 -31.224 454.353 -31.224C454.879 -31.224 455.472 -32.2434 455.67 -33.4881C455.868 -34.7328 455.276 -35.7522 454.353 -35.7522C453.43 -35.7522 452.838 -34.7328 453.036 -33.4881ZM190.682 -31.8685C190.334 -30.6891 190.539 -29.0905 191.138 -28.3154C192.687 -26.3146 193.685 -29.0547 192.393 -31.759C191.67 -33.2712 191.107 -33.307 190.682 -31.8685ZM334.206 -21.0093C334.206 -18.1133 334.434 -16.9276 334.713 -18.3766C334.993 -19.8235 334.993 -22.1929 334.713 -23.6419C334.434 -25.0888 334.206 -23.9052 334.206 -21.0093ZM156.355 -21.0093C156.013 -19.8509 156.213 -18.9031 156.799 -18.9031C157.385 -18.9031 157.865 -19.8509 157.865 -21.0093C157.865 -22.1676 157.666 -23.1154 157.421 -23.1154C157.176 -23.1154 156.697 -22.1676 156.355 -21.0093ZM100.984 -16.6306C93.6413 -13.3703 53.0511 -10.2595 26.2312 -10.8998C8.92821 -11.3126 -0.081209 -10.805 0.136249 -9.42551C0.685936 -5.9567 14.4009 -5.76294 53.6662 -8.6694C74.1536 -10.1879 93.6343 -11.4516 96.9565 -11.4811C101.343 -11.5169 103.479 -12.5405 104.759 -15.2174C105.728 -17.2435 106.18 -18.7936 105.766 -18.6609C105.351 -18.5282 103.198 -17.6142 100.984 -16.6306ZM167.933 -16.7675C166.87 -15.3101 167.467 -15.0973 169.946 -16.0493C174.288 -17.7153 175.107 -18.9137 171.876 -18.8715C170.538 -18.8526 168.763 -17.9069 167.933 -16.7675ZM218.27 -16.6727C218.27 -15.4469 218.723 -15.0278 219.277 -15.7439C219.831 -16.46 220.284 -17.4625 220.284 -17.9743C220.284 -18.4861 219.831 -18.9031 219.277 -18.9031C218.723 -18.9031 218.27 -17.8985 218.27 -16.6727ZM286.226 -16.797L276.158 -15.5059L288.432 -15.0994C295.747 -14.8551 300.957 -15.5417 301.327 -16.797C301.695 -18.0396 300.79 -18.7367 299.121 -18.4945C297.566 -18.2713 291.763 -17.5067 286.226 -16.797ZM308.236 -14.2233C307.695 -12.3888 330.001 -14.2738 331.001 -16.1462C331.264 -16.639 326.375 -16.8328 320.137 -16.5779C313.898 -16.3231 308.543 -15.2637 308.236 -14.2233ZM341.849 -13.2966C342.541 -12.7111 343.674 -12.7111 344.366 -13.2966C345.058 -13.88 344.492 -14.3581 343.107 -14.3581C341.723 -14.3581 341.157 -13.88 341.849 -13.2966ZM350.973 -13.2524C351.699 -12.6437 352.568 -12.7195 352.902 -13.4187C353.236 -14.118 352.642 -14.615 351.581 -14.5245C350.408 -14.4234 350.17 -13.9242 350.973 -13.2524ZM377.84 -12.7595C372.963 -11.9107 378.646 -10.9988 396.292 -9.80251C413.204 -8.65466 423.375 -7.06664 426.494 -5.08686C432.047 -1.56119 438.749 -1.12312 438.749 -4.28443C438.749 -5.5102 438.334 -5.97987 437.827 -5.32486C437.321 -4.66985 436.733 -5.22376 436.521 -6.55695C436.259 -8.19973 429.66 -9.52238 416.048 -10.6576C405 -11.5801 393.47 -12.7069 390.425 -13.1597C387.379 -13.6146 381.716 -13.4356 377.84 -12.7595ZM363.513 -11.1252C364.493 -10.5902 365.852 -10.626 366.533 -11.2031C367.215 -11.7802 366.414 -12.2161 364.752 -12.174C363.091 -12.1319 362.534 -11.6601 363.513 -11.1252ZM225.501 -6.79284L276.524 -6.22839L276.959 -1.50854C277.33 2.51418 277.415 2.35622 277.532 -2.58056L277.668 -8.37244L226.072 -7.86486L174.476 -7.35938L225.501 -6.79284ZM282.973 -5.73977C281.421 -1.58015 279.866 14.1169 280.72 17.0086C281.146 18.4492 281.816 29.9234 282.209 42.5055C282.602 55.0855 283.372 65.9594 283.918 66.6671C284.466 67.3748 299.253 68.7353 316.779 69.6894C334.305 70.6435 357.932 71.9767 369.283 72.6485C381.773 73.3899 389.126 73.1266 387.908 71.983C386.8 70.9447 367.32 69.3756 344.617 68.4973C321.915 67.6191 299.037 66.3133 293.776 65.5951C284.466 64.323 284.208 64.1503 284.061 59.0239C282.459 3.30609 282.438 0.0942307 283.679 -3.03128C285.198 -6.86023 297.041 -7.57 301.412 -4.09277C303.811 -2.18461 303.988 -2.31308 302.863 -5.14584C301.206 -9.32441 284.496 -9.82146 282.973 -5.73977ZM307.368 -6.2663C305.662 -4.73303 305.816 -4.47187 308.374 -4.55822C310.035 -4.61298 312.754 -5.38172 314.415 -6.2663C317.301 -7.80378 317.257 -7.87749 313.408 -7.97438C311.193 -8.03125 308.475 -7.2625 307.368 -6.2663ZM133.992 -4.70776C137.195 -4.28864 142.179 -4.29285 145.066 -4.71618C147.953 -5.13952 145.331 -5.48281 139.24 -5.4786C133.149 -5.47439 130.787 -5.12688 133.992 -4.70776ZM166.972 -3.22293C166.28 -1.48116 165.606 8.65357 165.393 20.4711C164.979 43.5733 165.607 41.3871 166.705 15.905C167.355 0.846123 167.689 -1.15892 169.946 -3.54517C172.286 -6.01567 172.312 -6.20733 170.321 -6.23471C169.143 -6.25156 167.636 -4.89731 166.972 -3.22293ZM325.275 -4.70776C328.478 -4.28864 333.462 -4.29285 336.349 -4.71618C339.235 -5.13952 336.614 -5.48281 330.523 -5.4786C324.432 -5.47439 322.07 -5.12688 325.275 -4.70776ZM353.175 -4.16016C351.025 -2.71957 351.274 -2.44366 354.877 -2.26464C357.198 -2.1488 359.376 -3.00179 359.719 -4.16016C360.444 -6.61592 356.838 -6.61592 353.175 -4.16016ZM62.2236 -1.8034C56.9633 -0.708206 51.8662 0.359604 50.8977 0.570217C49.9292 0.78294 49.1358 1.88866 49.1358 3.03019C49.1358 4.17171 48.5922 3.96952 47.9277 2.57948C47.2633 1.18942 45.7904 0.0815964 44.6558 0.115295C42.605 0.180584 42.605 0.195324 44.6055 2.49733C49.5416 8.17548 50.0963 12.1013 50.1204 41.5198L50.1426 69.2955L54.6096 70.6982C57.067 71.4691 59.6725 71.6018 60.3984 70.9931C61.1253 70.3844 60.5041 69.8116 59.0171 69.721C57.5301 69.6304 55.1059 68.5942 53.629 67.419L50.945 65.2834L51.6517 36.3535C52.1561 15.747 52.7753 6.51373 53.8042 4.26438C54.9619 1.7307 59.4802 0.867184 76.6061 -0.0932159C88.3528 -0.752438 95.6981 -1.46852 92.9295 -1.68546C90.161 -1.90239 84.2715 -2.46473 79.8418 -2.9365C75.4121 -3.40828 67.4839 -2.89859 62.2236 -1.8034ZM101.235 -2.63743C103.034 -2.16986 105.98 -2.16986 107.779 -2.63743C109.578 -3.10289 108.106 -3.4862 104.507 -3.4862C100.908 -3.4862 99.4362 -3.10289 101.235 -2.63743ZM157.865 -2.57003C157.865 -1.41166 158.545 0.715542 159.375 2.15825C160.218 3.6199 160.885 3.84948 160.885 2.67425C160.885 1.51588 160.206 -0.611324 159.375 -2.05403C158.532 -3.51569 157.865 -3.74526 157.865 -2.57003ZM375.575 -2.6269C377.652 -2.17197 381.05 -2.17197 383.126 -2.6269C385.203 -3.07972 383.503 -3.4525 379.35 -3.4525C375.197 -3.4525 373.499 -3.07972 375.575 -2.6269ZM388.223 -0.615536C388.949 -0.00686264 389.818 -0.0826836 390.152 -0.781921C390.486 -1.48116 389.892 -1.97821 388.831 -1.88764C387.658 -1.78655 387.419 -1.28739 388.223 -0.615536ZM395.319 -0.474426C394.949 3.721 395.624 60.8205 396.106 66.0184C396.501 70.2854 397.094 71.606 398.213 70.7088C399.069 70.0222 400.866 70.9615 402.206 72.7981C403.546 74.6346 405.143 75.7888 405.757 75.3612C406.371 74.9337 404.821 72.0693 402.314 68.9965C398.187 63.9354 397.695 62.478 397.111 53.5501C396.756 48.1289 396.465 33.9314 396.465 22.0002V0.306953L400.24 -0.52076L404.016 -1.34637L399.737 -1.7002C397.384 -1.89396 395.396 -1.34426 395.319 -0.474426ZM4.83879 2.23196C2.34708 3.08073 5.51834 3.28713 11.886 2.68689C18.2537 2.08874 23.6519 1.2505 23.8835 0.825062C24.6033 -0.501804 9.60173 0.606022 4.83879 2.23196ZM29.2525 1.50323C30.221 2.03398 31.8076 2.03398 32.7761 1.50323C33.7446 0.974594 32.9523 0.540733 31.0143 0.540733C29.0763 0.540733 28.284 0.974594 29.2525 1.50323ZM416.852 1.50323C417.82 2.03398 419.407 2.03398 420.375 1.50323C421.344 0.974594 420.552 0.540733 418.614 0.540733C416.676 0.540733 415.883 0.974594 416.852 1.50323ZM161.187 42.1748C161.187 48.5459 161.376 51.1533 161.606 47.9667C161.837 44.7801 161.837 39.5695 161.606 36.383C161.376 33.1964 161.187 35.8038 161.187 42.1748ZM391.719 47.4402C391.727 53.232 391.923 55.3508 392.154 52.1495C392.385 48.9482 392.379 44.2094 392.14 41.6188C391.901 39.0283 391.712 41.6483 391.719 47.4402ZM276.682 47.4402C276.183 54.0387 275.965 57.6507 275.804 61.9704C275.663 65.7404 274.983 65.8857 263.826 64.5294C257.319 63.7375 248.709 63.173 244.691 63.2741C239.6 63.4026 236.711 62.4675 235.155 60.1886C232.331 56.0501 230.351 56.0037 230.351 60.077C230.351 65.2665 223.672 64.3082 223.012 59.0239C222.723 56.7072 221.935 54.8117 221.261 54.8117C220.336 54.8117 220.318 55.5193 221.189 57.7139C223.082 62.4885 219.536 63.1772 192.85 63.2067L167.933 63.2362L167.917 57.4443C167.908 54.2577 167.462 50.2308 166.926 48.4932C166.218 46.2018 165.945 48.0173 165.934 55.0981L165.919 64.8642L170.295 66.2374C180.828 69.542 229.707 66.7661 232.113 62.7265C232.939 61.3386 233.371 61.3323 233.371 62.7055C233.371 65.3002 244.743 67.2737 262.485 67.7602C275.86 68.1266 276.002 68.0803 276.879 63.1225C277.365 60.3697 277.592 54.7653 277.383 50.671C277.172 46.5788 276.857 45.1234 276.682 47.4402ZM262.567 51.6672C262.567 53.5206 264.461 54.6916 268.356 55.2476C275.223 56.227 275.914 55.7257 272.02 52.5855C267.492 48.9355 262.567 48.4574 262.567 51.6672ZM89.4059 61.1301C89.4059 63.4468 90.0331 65.3423 90.7982 65.3423C91.5644 65.3423 92.4282 63.4468 92.7181 61.1301C93.1087 58.0067 92.7483 56.9178 91.3248 56.9178C90.0774 56.9178 89.4059 58.39 89.4059 61.1301ZM45.8236 65.3423C45.5347 67.6591 45.7079 69.5546 46.2102 69.5546C46.7116 69.5546 47.1223 67.6591 47.1223 65.3423C47.1223 63.0256 46.9482 61.1301 46.7368 61.1301C46.5243 61.1301 46.1136 63.0256 45.8236 65.3423ZM161.101 63.6279C159.373 67.2421 120.84 68.9754 117.804 65.5761C116.422 64.0281 115.49 63.946 115.08 65.336C114.734 66.507 109.66 67.5643 103.693 67.7075C97.773 67.8486 88.1726 68.7164 82.3586 69.6346C75.1775 70.7677 78.7283 70.9468 93.4329 70.1886C105.338 69.5736 115.984 69.1081 117.092 69.1502C160.501 70.8288 163.872 70.4013 162.748 63.3415C162.48 61.6629 162.001 61.7451 161.101 63.6279ZM408.546 73.7669C410.556 76.4838 415.892 76.4838 415.09 73.7669C414.748 72.6085 412.796 71.6755 410.752 71.6923C407.982 71.7176 407.421 72.2441 408.546 73.7669ZM11.886 75.913C11.886 77.1872 13.0106 77.4947 14.6546 76.6691C18.6071 74.6873 18.74 73.7669 15.0744 73.7669C13.3207 73.7669 11.886 74.7336 11.886 75.913ZM421.446 75.2054C422.171 75.814 423.04 75.7382 423.375 75.039C423.709 74.3398 423.115 73.8427 422.054 73.9333C420.881 74.0344 420.642 74.5335 421.446 75.2054ZM1.56684 77.2673C2.25949 77.8528 3.39208 77.8528 4.08372 77.2673C4.77637 76.6839 4.20957 76.2058 2.82528 76.2058C1.441 76.2058 0.875205 76.6839 1.56684 77.2673ZM175.483 77.9791L161.389 79.2133L173.973 79.4008C180.894 79.504 192.673 78.9143 200.149 78.0908L213.74 76.5954L201.659 76.6691C195.014 76.7112 183.235 77.301 175.483 77.9791ZM228.02 77.3494C227.747 78.274 249.938 78.7774 277.336 78.4678C309.534 78.1013 328.524 78.6763 331.039 80.0916C334.39 81.9808 334.985 83.2255 335.333 89.0827L335.738 95.8813L335.884 89.5629C336.191 76.2521 339.213 76.9872 281.32 76.2963C252.278 75.9488 228.293 76.4227 228.02 77.3494ZM446.153 79.0701C445.365 83.3666 447.369 86.4058 450.83 86.1615C453.031 86.0056 453.094 85.8119 451.333 84.6135C450.226 83.8616 449.32 81.9008 449.32 80.2601C449.32 75.8583 446.908 74.9526 446.153 79.0701ZM84.8755 79.445C79.8921 79.8852 60.4115 81.0857 41.5852 82.1114L7.35566 83.9795L53.6662 83.0339C79.137 82.5158 101.973 81.4943 104.415 80.7656L108.851 79.4408L108.142 107.575C107.751 123.048 106.978 136.85 106.424 138.248C105.747 139.952 105.764 141.237 106.471 142.153C107.052 142.903 107.527 145.312 107.527 147.507C107.527 153.229 102.104 155.797 88.9025 156.327L77.8283 156.772L86.889 157.526C96.6887 158.339 105.182 156.833 107.471 153.874C108.452 152.606 108.936 147.791 108.999 138.693C109.321 92.2356 109.486 88.7815 111.562 84.7335C113.197 81.5469 114.687 80.9783 119.365 81.7533C122.544 82.282 124.888 82.1367 124.574 81.4332C123.834 79.7736 96.6012 78.4109 84.8755 79.445ZM133.703 80.0853C129.578 80.9551 128.276 81.7407 130.179 82.2146C133.632 83.0697 135.825 82.7706 144.274 80.2875L150.314 78.5141L145.281 78.6089C142.512 78.6637 137.302 79.3271 133.703 80.0853ZM222.297 81.9429C222.297 83.1013 222.75 84.6345 223.304 85.3506C223.858 86.0667 224.311 85.7044 224.311 84.5461C224.311 83.3877 223.858 81.8544 223.304 81.1384C222.75 80.4223 222.297 80.7845 222.297 81.9429ZM344.617 82.1914L340.59 83.2445V118.87C340.59 145.498 340.272 154.718 339.332 155.378C335.615 157.977 339.631 159.086 353.426 159.27C381.949 159.649 394.05 160.567 390.928 162.111L387.908 163.606L390.588 166.327C392.869 168.646 393.327 170.653 393.674 179.853C393.898 185.796 393.768 191.605 393.384 192.764C393.001 193.922 393.052 196.765 393.498 199.082C393.945 201.399 394.342 207.005 394.381 211.544C394.419 216.081 394.745 219.179 395.103 218.429C395.461 217.681 395.691 206.428 395.613 193.425C395.495 173.486 395.203 169.463 393.749 167.762C392.159 165.9 392.178 165.618 393.993 164.133C395.076 163.246 401.398 162.321 408.043 162.079L420.124 161.635L409.553 160.013C403.739 159.12 387.203 157.307 372.806 155.986C358.41 154.664 345.668 153.084 344.492 152.475C341.841 151.104 341.094 141.669 341.094 109.571V86.9913L346.379 85.6623C354.854 83.533 366.263 84.0301 366.263 86.528C366.263 87.7537 366.797 88.0675 367.449 87.223C368.102 86.3805 379.089 85.7002 391.863 85.715C410.215 85.736 413.173 85.3906 405.956 84.0743C394.998 82.0777 350.304 80.7045 344.617 82.1914ZM2.22224 85.9088C0.673855 88.0739 -0.569483 152.614 0.831915 158.092C1.77826 161.789 2.86656 162.18 11.1662 161.812C19.5444 161.439 19.7609 161.336 13.3962 160.75C0.776543 159.586 1.81652 162.631 1.83263 126.907C1.84773 91.3847 2.20814 86.9766 5.19316 85.755C7.17344 84.9462 7.18552 84.8494 5.34216 84.6156C4.23473 84.4766 2.83032 85.0579 2.22224 85.9088ZM325.992 86.4037C325.992 87.5621 326.418 88.5098 326.94 88.5098C327.461 88.5098 328.167 87.5621 328.509 86.4037C328.852 85.2453 328.425 84.2975 327.562 84.2975C326.699 84.2975 325.992 85.2453 325.992 86.4037ZM451.501 92.0208C450.028 95.0999 451.322 117.996 452.969 117.996C454.344 117.996 454.003 107.933 452.591 106.863C451.585 106.1 451.585 105.018 452.591 101.45C454.165 95.875 454.191 94.1374 452.672 96.1024C451.88 97.126 451.705 96.4773 452.137 94.1206C452.818 90.4096 452.606 89.7082 451.501 92.0208ZM197.632 96.9344C197.289 98.0927 197.49 99.0405 198.076 99.0405C198.662 99.0405 199.142 98.0927 199.142 96.9344C199.142 95.776 198.942 94.8282 198.698 94.8282C198.453 94.8282 197.974 95.776 197.632 96.9344ZM223.671 116.943C223.674 128.526 223.843 132.996 224.047 126.875C224.251 120.757 224.249 111.279 224.043 105.814C223.835 100.351 223.669 105.359 223.671 116.943ZM242.432 99.1058C242.432 100.228 243.112 101.147 243.942 101.147C244.773 101.147 245.452 100.774 245.452 100.319C245.452 99.864 244.773 98.9457 243.942 98.2781C243.112 97.6125 242.432 97.9853 242.432 99.1058ZM226.996 102.551C226.626 103.322 226.324 110.115 226.324 117.644C226.324 125.173 226.502 130.94 226.719 130.458C227.106 129.596 228.201 101.147 227.847 101.147C227.748 101.147 227.364 101.778 226.996 102.551ZM19.9401 126.42C19.9401 127.579 20.3931 128.526 20.9468 128.526C21.5005 128.526 21.9536 127.579 21.9536 126.42C21.9536 125.262 21.5005 124.314 20.9468 124.314C20.3931 124.314 19.9401 125.262 19.9401 126.42ZM293.776 128.592C293.776 129.714 294.456 130.633 295.287 130.633C296.117 130.633 296.797 130.26 296.797 129.805C296.797 129.35 296.117 128.432 295.287 127.764C294.456 127.098 293.776 127.471 293.776 128.592ZM111.493 144.322C111.195 151.273 111.053 157.284 111.177 157.677C111.301 158.073 116.081 156.959 121.798 155.201L132.193 152.006L122.433 153.145L112.674 154.282L112.355 142.985L112.036 131.686L111.493 144.322ZM224.381 143.501L224.311 149L209.177 150.506C190.92 152.324 160.794 153.977 144.274 154.065C137.466 154.101 133.511 154.769 135.213 155.592C136.874 156.397 142.877 156.978 148.553 156.888C154.228 156.797 158.872 157.589 158.872 158.648C158.872 159.708 160.118 159.91 161.64 159.097C163.163 158.284 169.392 157.265 175.483 156.833C181.574 156.401 194.712 155.413 204.679 154.636C223.504 153.168 227.183 153.25 246.459 155.567C252.827 156.334 272.76 156.46 290.756 155.849C318.279 154.914 320.264 154.664 303.252 154.27C292.129 154.011 270.718 153.175 255.67 152.408L228.311 151.016L227.408 144.51C226.769 139.902 226.459 139.232 226.344 142.216L226.182 146.429L225.317 142.216C224.536 138.415 224.446 138.539 224.381 143.501ZM44.1041 150.875C44.1031 152.242 45.1572 152.793 46.6341 152.204C50.2876 150.742 50.6057 148.055 47.0942 148.314C45.4511 148.436 44.1061 149.588 44.1041 150.875ZM30.9298 156.574C28.6233 158.541 28.7058 158.728 32.5244 160.215C34.7393 161.077 36.5897 161.643 36.635 161.477C36.6813 161.308 35.9645 159.67 35.0413 157.835C33.7617 155.293 32.7852 154.994 30.9298 156.574ZM51.5984 156.089C50.5614 159.602 52.8941 163.629 54.2834 160.723C55.4452 158.292 54.7183 153.8 53.1629 153.8C52.6746 153.8 51.9709 154.83 51.5984 156.089ZM324.986 156.713C324.986 158.583 329.059 159.56 329.575 157.814C329.885 156.765 328.979 155.906 327.562 155.906C326.146 155.906 324.986 156.271 324.986 156.713ZM341.544 162.046C341.857 163.105 341.544 164.451 340.848 165.038C340.152 165.624 341.169 166.068 343.107 166.026C345.045 165.984 345.833 165.512 344.857 164.979C343.881 164.447 343.342 163.137 343.658 162.065C343.974 160.995 343.5 160.118 342.604 160.118C341.708 160.118 341.231 160.986 341.544 162.046ZM425.158 162.517C435.001 165.9 447.008 166.675 446.566 163.897C446.275 162.073 442.387 161.249 433.14 161.058C423.284 160.854 421.346 161.207 425.158 162.517ZM184.041 164.331C184.041 166.751 216.31 166.822 236.895 164.447C247.332 163.244 243.304 162.865 217.012 162.581C195.588 162.349 184.041 162.962 184.041 164.331ZM264.392 163.663C265.118 164.272 265.987 164.196 266.321 163.497C266.656 162.797 266.062 162.3 265 162.391C263.828 162.492 263.589 162.991 264.392 163.663ZM287.233 164.067C284.243 165.396 284.211 165.563 284.072 180.139L283.932 194.87L284.675 181.673C285.084 174.415 285.713 167.861 286.073 167.109C286.432 166.357 290.917 165.093 296.04 164.301L305.354 162.859L297.803 162.791C293.651 162.753 288.894 163.328 287.233 164.067ZM459.387 165.18C461.048 166.7 462.621 167.555 462.882 167.077C463.682 165.611 460.514 162.286 458.38 162.351C456.854 162.399 457.098 163.084 459.387 165.18ZM80.4972 166.734C59.0584 168.488 49.3926 171.289 52.2085 174.929C52.9806 175.927 53.8515 175.976 54.1434 175.034C55.3052 171.283 60.0531 170.62 92.4584 169.682C110.99 169.147 131.186 168.078 137.339 167.305C145.003 166.342 148.74 166.622 149.205 168.193C149.666 169.756 150.695 169.842 152.43 168.463C155.439 166.068 160.902 165.853 162.562 168.063C163.208 168.922 164.198 178.623 164.764 189.619L165.791 209.613L165.486 188.85C165.269 174.021 164.783 167.559 163.789 166.241C162.061 163.954 142.808 163.983 128.669 166.298C122.69 167.275 117.683 167.225 117.142 166.178C116.077 164.12 111.582 164.188 80.4972 166.734ZM172.23 165.79C173.21 166.325 174.569 166.289 175.251 165.712C175.932 165.135 175.131 164.699 173.47 164.741C171.809 164.784 171.251 165.255 172.23 165.79ZM277.445 166.963C278.012 168.412 278.925 173.861 279.474 179.074C280.164 185.622 280.506 186.843 280.581 183.023C280.771 173.263 279.501 164.331 277.923 164.331C276.839 164.331 276.704 165.07 277.445 166.963ZM309.651 165.858C311.46 166.325 314.178 166.317 315.691 165.837C317.205 165.354 315.724 164.971 312.401 164.984C309.079 164.994 307.842 165.388 309.651 165.858ZM327.27 165.79C328.25 166.325 329.609 166.289 330.29 165.712C330.972 165.135 330.171 164.699 328.509 164.741C326.848 164.784 326.29 165.255 327.27 165.79ZM168.604 167.842C168.235 168.613 167.933 176.826 167.933 186.093C167.933 195.36 168.187 202.41 168.499 201.759C168.928 200.86 169.767 166.424 169.359 166.435C169.313 166.437 168.973 167.069 168.604 167.842ZM348.908 167.926C350.161 168.429 351.973 168.41 352.935 167.884C353.898 167.357 352.873 166.944 350.658 166.968C348.443 166.991 347.656 167.423 348.908 167.926ZM362.487 167.985C365.118 168.419 369.421 168.419 372.051 167.985C374.682 167.551 372.53 167.195 367.269 167.195C362.009 167.195 359.857 167.551 362.487 167.985ZM23.1989 170.672C11.425 171.462 1.45811 172.808 1.05038 173.665C0.642645 174.522 10.689 174.946 23.3771 174.607C45.4884 174.015 46.478 174.16 47.217 178.111C47.6408 180.377 48.0858 193.606 48.2056 207.507C48.4241 232.7 48.4271 232.73 49.2003 216.984C50.2342 195.912 49.3563 174.562 47.3166 171.176C46.4438 169.729 45.4773 168.699 45.1682 168.891C44.8582 169.082 34.9729 169.885 23.1989 170.672ZM399.735 171.176C399.119 172.793 399.016 179.495 399.469 188.551C400.067 200.518 400.268 201.708 400.53 194.87C400.709 190.236 400.752 183.351 400.627 179.569C400.448 174.122 400.883 172.286 402.712 170.75C404.95 168.872 404.955 168.806 402.88 168.676C401.702 168.604 400.287 169.729 399.735 171.176ZM411.818 172.1C412.787 172.631 414.373 172.631 415.342 172.1C416.31 171.572 415.518 171.138 413.58 171.138C411.642 171.138 410.85 171.572 411.818 172.1ZM60.2101 183.286C59.303 184.512 59.1782 185.339 59.899 185.361C60.5585 185.377 61.3779 184.444 61.7202 183.286C62.4924 180.67 62.1441 180.67 60.2101 183.286ZM104.507 187.498C104.507 188.657 104.933 189.604 105.455 189.604C105.976 189.604 106.682 188.657 107.024 187.498C107.366 186.34 106.939 185.392 106.077 185.392C105.214 185.392 104.507 186.34 104.507 187.498ZM279.878 199.082C279.898 202.557 280.124 203.724 280.38 201.675C280.635 199.625 280.618 196.782 280.342 195.356C280.066 193.93 279.858 195.607 279.878 199.082ZM169.019 220.318C169.067 222.772 169.306 223.271 169.627 221.592C169.918 220.072 169.882 218.254 169.547 217.555C169.213 216.856 168.976 218.098 169.019 220.318ZM284.949 223.303C284.949 227.357 285.157 229.017 285.409 226.988C285.663 224.96 285.663 221.645 285.409 219.617C285.157 217.589 284.949 219.248 284.949 223.303ZM363.821 220.942C363.509 221.997 363.931 223.404 364.758 224.069C365.586 224.733 366.263 224.415 366.263 223.362C366.263 220.506 364.474 218.732 363.821 220.942ZM279.936 228.568C279.947 233.201 280.153 234.848 280.394 232.228C280.634 229.608 280.625 225.817 280.374 223.804C280.122 221.79 279.925 223.934 279.936 228.568ZM164.057 235.939C162.737 243.861 164.145 244.269 165.867 236.466L167.144 230.674L168.668 235.413C170.219 240.236 175.987 242.313 175.987 238.046C175.987 236.887 174.909 235.939 173.592 235.939C172.277 235.939 170.636 234.518 169.946 232.78C167.886 227.589 165.208 229.025 164.057 235.939ZM215.25 238.046C214.003 239.73 214.091 240.067 215.753 239.971C216.861 239.907 218.673 239.042 219.78 238.046C221.625 236.388 221.582 236.226 219.277 236.12C217.893 236.055 216.08 236.923 215.25 238.046ZM46.1055 242.134C44.7152 244.307 40.4113 247.079 36.5414 248.292L29.5042 250.497L37.4545 249.537C41.8278 249.01 45.9465 247.637 46.6079 246.489C47.2693 245.341 48.109 245.023 48.4734 245.786C48.8378 246.548 49.1358 245.118 49.1358 242.61C49.1358 237.165 49.2667 237.186 46.1055 242.134ZM194.994 240.352C194.128 241.5 196.262 242.15 200.652 242.077C210.328 241.919 213.083 239.044 203.841 238.749C199.74 238.618 195.758 239.341 194.994 240.352ZM293.351 239.888C293.052 240.901 293.922 241.731 295.287 241.731C296.651 241.731 297.522 240.901 297.223 239.888C296.923 238.875 296.052 238.046 295.287 238.046C294.521 238.046 293.651 238.875 293.351 239.888ZM179.278 241.611C180.257 242.146 181.616 242.11 182.298 241.533C182.979 240.956 182.178 240.52 180.517 240.562C178.856 240.604 178.298 241.076 179.278 241.611ZM238.657 241.725C245.717 242.087 257.27 242.087 264.329 241.725C271.388 241.363 265.613 241.068 251.493 241.068C237.373 241.068 231.597 241.363 238.657 241.725ZM308.878 242.363C323.763 245.055 372.945 247.73 384.384 246.47C390.007 245.851 378.597 244.758 356.698 243.816C336.211 242.936 314.692 241.818 308.878 241.333L298.307 240.453L308.878 242.363ZM95.2531 244.273C74.3821 244.962 56.9956 246.173 56.617 246.965C55.7844 248.707 130.091 246.649 147.797 244.44L160.382 242.869L146.791 242.946C139.316 242.989 116.123 243.587 95.2531 244.273ZM417.367 245.853C418.62 246.356 420.432 246.337 421.394 245.811C422.357 245.284 421.332 244.871 419.117 244.895C416.902 244.918 416.115 245.35 417.367 245.853ZM428.456 248.014C430.823 248.46 434.448 248.454 436.51 248.001C438.571 247.548 436.634 247.184 432.205 247.192C427.775 247.199 426.088 247.569 428.456 248.014ZM450.075 247.921C451.043 248.452 452.63 248.452 453.598 247.921C454.567 247.393 453.774 246.959 451.836 246.959C449.898 246.959 449.106 247.393 450.075 247.921ZM7.14626 250.139C10.9065 250.545 16.796 250.543 20.234 250.133C23.6711 249.724 20.5944 249.391 13.3962 249.395C6.1979 249.398 3.38504 249.735 7.14626 250.139ZM458.129 250.027C459.097 250.558 460.684 250.558 461.652 250.027C462.621 249.499 461.828 249.065 459.89 249.065C457.952 249.065 457.16 249.499 458.129 250.027ZM146.791 252.953C133.568 253.772 141.667 254.008 167.606 253.557C190.959 253.153 212.855 253.431 216.263 254.174L222.459 255.531L221.817 268.376C221.357 277.571 221.472 280.324 222.224 278.062C223.665 273.721 223.576 256.306 222.096 253.21C220.793 250.484 188.383 250.375 146.791 252.953ZM229.84 255.678C228.66 259.446 228.119 269.296 227.645 295.695L227.016 330.716L262.662 330.216L298.307 329.719L263.167 329.136L228.027 328.555L228.641 295.644C229.473 251.07 228.502 253.102 249.38 252.256L265.084 251.62L248.244 251.152C231.521 250.687 231.393 250.716 229.84 255.678ZM110.17 259.37C109.824 262.991 109.605 278.865 109.685 294.648L109.829 323.344L110.623 299.123C111.061 285.802 111.6 269.926 111.821 263.846C112.26 251.773 111.177 248.835 110.17 259.37ZM267.699 253.694C267.936 254.193 277.639 255.019 289.259 255.529C300.88 256.04 309.482 255.699 308.374 254.772C306.338 253.064 266.898 252.02 267.699 253.694ZM332.033 254.309C334.691 254.768 337.084 256.525 337.822 258.555C338.944 261.645 339.08 261.66 339.08 258.681C339.08 254.343 336.888 252.702 331.699 253.157L327.503 253.523L332.033 254.309ZM69.2709 257.028C94.8826 258.818 104.159 261.011 105.664 265.627C106.417 267.936 106.562 267.694 106.323 264.524C106.141 262.104 104.797 259.722 102.997 258.627C101.336 257.616 87.7448 256.47 72.7945 256.08L45.6122 255.373L69.2709 257.028ZM342.605 256.997C341.477 260.813 342.529 261.413 346.731 259.351C348.939 258.269 349.702 257.331 348.475 257.211C347.274 257.096 345.621 256.462 344.802 255.804C343.982 255.145 342.993 255.682 342.605 256.997ZM352.935 256.384C354.188 256.887 356 256.868 356.962 256.341C357.925 255.815 356.9 255.402 354.685 255.425C352.47 255.449 351.683 255.88 352.935 256.384ZM2.58568 258.49C3.83807 258.993 5.65023 258.974 6.61268 258.448C7.57514 257.921 6.55026 257.508 4.33541 257.531C2.12056 257.555 1.33328 257.986 2.58568 258.49ZM17.2178 258.568C21.5337 258.964 28.3293 258.962 32.3191 258.564C36.3078 258.163 32.7761 257.841 24.4704 257.843C16.1647 257.845 12.9008 258.172 17.2178 258.568ZM457.625 259.448C454.797 261.609 453.831 268.717 455.796 272.902C456.312 274.001 456.917 278.694 457.137 283.327C457.407 288.997 457.594 287.087 457.708 277.483C457.864 264.351 458.077 263.056 460.394 261.213C461.778 260.111 462.911 258.713 462.911 258.106C462.911 256.493 460.786 257.032 457.625 259.448ZM448.816 259.903C448.816 260.339 449.609 261.999 450.578 263.589C452.175 266.207 452.21 266.133 450.959 262.793C449.643 259.284 448.816 258.17 448.816 259.903ZM451.916 270.865C451.964 273.319 452.203 273.818 452.524 272.14C452.815 270.619 452.779 268.801 452.444 268.102C452.11 267.403 451.873 268.646 451.916 270.865ZM453.173 308.601C453.178 316.71 453.36 319.768 453.578 315.4C453.796 311.029 453.793 304.395 453.57 300.657C453.348 296.916 453.169 300.492 453.173 308.601ZM221.449 303.336C221.449 306.232 221.678 307.417 221.957 305.968C222.237 304.521 222.237 302.152 221.957 300.703C221.678 299.256 221.449 300.44 221.449 303.336ZM456.935 307.021C456.826 309.629 456.706 316.503 456.669 322.299C456.606 332.084 456.858 333.203 460.183 337.925C463.229 342.249 463.854 342.523 464.362 339.755C465.051 336 463.282 330.716 461.337 330.716C459.391 330.716 458.672 327.28 457.861 314.094C457.461 307.596 457.044 304.414 456.935 307.021ZM102.522 325.553C98.6197 331.318 98.7486 331.76 103.35 328.403C105.094 327.131 106.521 324.761 106.521 323.138C106.521 319.477 106.717 319.357 102.522 325.553ZM52.6534 328.622C49.9624 334.844 51.4031 335.823 54.1736 329.654C55.4713 326.762 56.0724 324.397 55.5076 324.397C54.9438 324.397 53.6592 326.299 52.6534 328.622ZM79.3384 326.832C77.9541 328.117 75.2359 329.962 73.2979 330.93C70.7256 332.217 71.1334 332.312 74.808 331.284C77.5766 330.509 83.4661 329.976 87.8958 330.098C94.7065 330.288 95.3286 330.039 91.9228 328.498C83.7812 324.808 81.8019 324.547 79.3384 326.832ZM110.548 327.622C110.548 330.151 112.341 330.663 120.364 330.429L130.179 330.141L121.738 328.439C117.095 327.502 112.678 326.24 111.922 325.633C111.146 325.01 110.548 325.874 110.548 327.622ZM178.334 328.521C156.093 329.149 137.67 330.136 137.393 330.716C136.46 332.668 219.766 330.383 220.737 328.428C221.33 327.234 221.139 326.67 220.233 326.941C219.431 327.184 200.575 327.893 178.334 328.521ZM309.129 330.06C310.098 330.591 311.685 330.591 312.653 330.06C313.622 329.532 312.829 329.098 310.891 329.098C308.953 329.098 308.161 329.532 309.129 330.06ZM331.781 332.202C333.028 332.704 335.065 332.704 336.312 332.202C337.558 331.699 336.538 331.288 334.047 331.288C331.555 331.288 330.535 331.699 331.781 332.202ZM376.519 332.954C376.761 334.473 377.554 336.133 378.281 336.64C379.036 337.167 379.414 336.377 379.162 334.797C378.919 333.277 378.126 331.617 377.4 331.111C376.645 330.585 376.268 331.375 376.519 332.954ZM384.384 332.822C383.193 334.433 383.406 334.844 385.391 334.774C386.775 334.726 389.72 333.9 391.935 332.942L395.962 331.2L390.928 330.989C388.159 330.873 385.215 331.699 384.384 332.822ZM429.688 332.946C429.688 334.172 430.141 334.591 430.695 333.875C431.248 333.159 431.701 332.156 431.701 331.644C431.701 331.133 431.248 330.716 430.695 330.716C430.141 330.716 429.688 331.72 429.688 332.946ZM63.0421 334.26C63.768 334.869 64.6368 334.793 64.971 334.094C65.3053 333.395 64.7113 332.897 63.6502 332.988C62.4773 333.089 62.2387 333.588 63.0421 334.26ZM362.236 339.14C362.236 340.298 362.915 341.246 363.746 341.246C364.576 341.246 365.256 340.298 365.256 339.14C365.256 337.982 364.576 337.034 363.746 337.034C362.915 337.034 362.236 337.982 362.236 339.14ZM174.17 340.642C172.875 341.16 171.431 343.883 170.898 346.811C168.657 359.142 170.491 408.828 173.55 418.647L175.026 423.385L204.954 422.975L234.881 422.564L206.189 421.281C190.408 420.576 176.749 419.274 175.835 418.388C173.622 416.244 173.173 412.158 171.803 381.737C170.878 361.183 170.901 354.86 171.914 350.903C173.66 344.075 176.82 341.505 182.1 342.619C184.551 343.137 189.955 342.689 194.108 341.623C201.576 339.709 201.521 339.688 189.074 339.7C182.153 339.707 175.446 340.132 174.17 340.642ZM231.61 340.648C233.132 341.13 235.624 341.13 237.147 340.648C238.669 340.166 237.424 339.772 234.378 339.772C231.333 339.772 230.087 340.166 231.61 340.648ZM249.246 340.667C251.055 341.135 253.773 341.126 255.286 340.646C256.799 340.164 255.319 339.78 251.996 339.793C248.674 339.803 247.437 340.197 249.246 340.667ZM268.873 340.652C270.404 341.135 272.669 341.122 273.907 340.623C275.146 340.124 273.893 339.728 271.125 339.742C268.356 339.759 267.343 340.168 268.873 340.652ZM61.2169 342.537C67.0298 344.06 87.1679 344.294 86.736 342.834C86.4783 341.96 80.0643 341.387 72.4834 341.562C64.9026 341.735 59.8326 342.175 61.2169 342.537ZM91.4194 343.352L87.8958 344.905L91.9228 344.953C94.1376 344.98 98.668 344.296 101.99 343.432L108.031 341.865L101.487 341.834C97.8878 341.815 93.3574 342.499 91.4194 343.352ZM137.227 343.43C149.408 344.178 160.508 345.423 161.892 346.2C163.934 347.343 163.838 347.028 161.389 344.523C158.988 342.07 153.932 341.501 136.723 341.756L115.078 342.074L137.227 343.43ZM15.9131 345.458C12.6965 347.613 29.9844 347.67 39.0683 345.534C44.4665 344.264 43.2333 343.976 32.0211 343.883C24.5459 343.822 17.2973 344.532 15.9131 345.458ZM47.4948 366.52C47.4948 378.683 47.661 383.657 47.8643 377.577C48.0677 371.497 48.0677 361.543 47.8643 355.463C47.661 349.382 47.4948 354.357 47.4948 366.52ZM163.985 355.111C164.033 357.565 164.272 358.064 164.593 356.385C164.884 354.864 164.848 353.047 164.514 352.348C164.179 351.648 163.942 352.891 163.985 355.111ZM165.059 385.475C164.912 391.846 164.441 401.522 164.011 406.974C163.582 412.427 163.578 418.065 164.002 419.502C165.339 424.026 166.029 412.979 165.667 392.847C165.432 379.778 165.243 377.489 165.059 385.475ZM51.2601 395.479C51.1936 405.812 51.5571 412.855 52.1561 412.855C53.0551 412.855 53.7337 402.514 53.192 397.059C53.0773 395.9 52.6202 391.162 52.1762 386.528C51.4947 379.407 51.3527 380.793 51.2601 395.479ZM313.355 381.848C312.562 386.168 313.428 391.793 314.887 391.793C316.175 391.793 316.217 385.488 314.956 381.322C314.154 378.666 313.925 378.742 313.355 381.848ZM286.963 393.9C286.963 397.954 287.17 399.614 287.423 397.585C287.677 395.557 287.677 392.242 287.423 390.214C287.17 388.186 286.963 389.845 286.963 393.9ZM47.1223 404.293C47.1223 408.851 46.6663 415.249 46.1096 418.51C45.1652 424.04 45.1994 424.163 46.6129 420.351C47.9942 416.625 48.8519 396.006 47.6257 396.006C47.3489 396.006 47.1223 399.736 47.1223 404.293ZM283.788 405.658C283.837 408.112 284.075 408.611 284.397 406.932C284.688 405.412 284.651 403.594 284.317 402.895C283.983 402.196 283.745 403.438 283.788 405.658ZM282.054 414.536C281.091 417.731 278.608 418.12 259.186 418.12C242.428 418.12 237.399 418.729 237.399 420.753C237.398 422.764 241.738 423.379 255.772 423.362C277.156 423.335 281.368 422.282 282.822 416.597C284.145 411.427 283.507 409.715 282.054 414.536ZM287.939 417.301C288.309 419.624 291.704 420.262 304.43 420.403L320.455 420.582L305.354 419.35C297.048 418.674 289.628 417.278 288.863 416.248C287.884 414.925 287.611 415.235 287.939 417.301ZM158.872 419.668C157.201 421.218 139.436 422.412 106.017 423.221C60.5947 424.321 57.5644 424.599 74.9842 426.069C93.0332 427.591 153.732 426.324 158.509 424.325C159.694 423.828 160.926 421.991 161.246 420.245C161.567 418.497 161.73 417.128 161.609 417.2C161.487 417.273 160.256 418.383 158.872 419.668ZM403.512 418.449C412.58 421.359 413.138 421.73 411.063 423.489C409.42 424.881 409.663 425.222 412.381 425.344C414.36 425.431 415.459 424.637 415.09 423.385C414.748 422.227 415.061 421.17 415.786 421.037C418.554 420.527 408.852 417.318 405.022 417.476C402.697 417.57 402.059 417.981 403.512 418.449ZM326.811 420.612C327.537 421.22 328.406 421.145 328.74 420.445C329.074 419.746 328.48 419.249 327.419 419.34C326.246 419.441 326.008 419.94 326.811 420.612ZM334.865 420.612C335.591 421.22 336.46 421.145 336.794 420.445C337.128 419.746 336.534 419.249 335.473 419.34C334.3 419.441 334.062 419.94 334.865 420.612ZM345.204 419.938C345.436 420.357 349.475 421.216 354.182 421.848C360.155 422.646 361.523 422.452 358.712 421.206C354.725 419.434 344.396 418.463 345.204 419.938ZM427.926 420.624C428.895 421.155 430.481 421.155 431.45 420.624C432.418 420.096 431.626 419.662 429.688 419.662C427.75 419.662 426.958 420.096 427.926 420.624ZM453.347 420.725C455.008 421.231 457.27 423.666 458.372 426.134C460.161 430.138 460.415 430.23 460.712 427.004C460.899 424.967 462.003 423.32 463.236 423.238C468.327 422.893 461.32 419.472 455.863 419.637C452.693 419.733 451.617 420.199 453.347 420.725ZM313.723 426.93C314.449 427.539 315.318 427.463 315.652 426.764C315.986 426.065 315.392 425.567 314.331 425.658C313.158 425.759 312.92 426.258 313.723 426.93ZM259.295 435.31C259.988 435.896 261.12 435.896 261.812 435.31C262.505 434.727 261.938 434.249 260.554 434.249C259.169 434.249 258.604 434.727 259.295 435.31ZM120.112 438.128L117.092 439.735L120.615 439.864C122.553 439.933 125.951 439.207 128.166 438.249L132.193 436.507L127.662 436.513C125.171 436.517 121.773 437.244 120.112 438.128ZM148.301 438.208C147.088 439.346 155.694 439.594 169.946 438.834C182.958 438.139 193.794 437.223 194.025 436.797C194.957 435.075 150.166 436.456 148.301 438.208ZM219.985 437.497C222.486 438.512 223.297 442.556 224.333 459.19L225.054 470.774L225.185 455.925C225.33 439.626 224.397 435.856 220.334 436.309C218.033 436.566 217.996 436.69 219.985 437.497ZM228.002 437.427C227.633 438.198 227.345 447.44 227.361 457.962C227.385 472.499 227.649 476.167 228.461 473.244C229.05 471.127 229.377 462.598 229.186 454.289L228.841 439.182L234.378 437.945L239.915 436.709L234.295 436.366C231.203 436.176 228.371 436.654 228.002 437.427ZM340.167 439.356C340.215 441.81 340.453 442.309 340.775 440.631C341.066 439.11 341.029 437.292 340.695 436.593C340.361 435.894 340.123 437.136 340.167 439.356ZM38.8166 439.702C46.1528 440.062 58.1584 440.062 65.4956 439.702C72.8318 439.344 66.8295 439.049 52.1561 439.049C37.4827 439.049 31.4794 439.344 38.8166 439.702ZM102.479 439.986C105.632 441.155 106.061 442.143 106.7 449.712C107.825 463.038 107.668 513.518 106.497 515.034C105.93 515.767 96.0766 516.894 84.5997 517.538C73.1237 518.185 63.0542 519.577 62.2236 520.634C60.6833 522.597 103.366 520.963 106.772 518.928C108.352 517.987 108.533 514.562 108.523 485.902C108.517 468.314 108.231 450.371 107.888 446.026C107.28 438.329 107.158 438.135 103.117 438.406L98.97 438.682L102.479 439.986ZM112.763 440.656C112.098 442.046 111.616 445.601 111.691 448.554L111.828 453.924L112.291 448.659C112.546 445.763 113.22 442.21 113.787 440.761C115.106 437.402 114.355 437.324 112.763 440.656ZM364.061 439.567C364.787 440.176 365.655 440.1 365.99 439.401C366.324 438.701 365.73 438.204 364.669 438.295C363.496 438.396 363.257 438.895 364.061 439.567ZM345.2 473.282C345.157 480.453 345.496 486.805 345.954 487.399C346.413 487.993 346.606 483.073 346.382 476.466C345.804 459.426 345.293 458.048 345.2 473.282ZM224.518 494.394C224.342 509.082 224.017 512.024 222.364 513.876C221.292 515.074 213.93 516.161 206.004 516.291C198.077 516.42 187.287 517.264 182.027 518.166C174.972 519.377 179.119 519.729 197.834 519.512C214.639 519.314 223.575 518.44 224.303 516.917C224.985 515.487 225.273 507.53 225.063 495.856L224.724 477.092L224.518 494.394ZM79.3384 489.554C79.3384 491.388 80.0562 492.888 80.9321 492.888C82.71 492.888 82.4009 488.354 80.5344 487.052C79.876 486.593 79.3384 487.72 79.3384 489.554ZM110.781 499.206C110.781 503.261 110.989 504.918 111.241 502.892C111.495 500.866 111.495 497.547 111.241 495.521C110.989 493.495 110.781 495.152 110.781 499.206ZM345.207 493.941C345.312 497.93 346.989 504.649 347.048 501.313C347.079 499.575 346.664 496.732 346.128 494.994C345.591 493.257 345.176 492.783 345.207 493.941ZM228.571 501.313C228.571 505.367 228.779 507.024 229.031 504.998C229.285 502.972 229.285 499.653 229.031 497.627C228.779 495.601 228.571 497.258 228.571 501.313ZM50.4829 513.423L48.416 519.215L26.7054 520.28C14.7643 520.866 4.61931 522.159 4.16124 523.155C3.69814 524.162 13.5905 524.324 26.4839 523.52L49.6392 522.077L51.8994 516.432L54.1595 510.79L54.1646 516.582C54.1686 520.626 54.6861 522.374 55.8811 522.374C57.212 522.374 57.3238 521.812 56.3845 519.846C55.72 518.456 55.1764 515.139 55.1764 512.475C55.1764 505.927 53.0008 506.367 50.4829 513.423ZM229.344 511.165C229.344 517.768 231.881 518.162 274.514 518.162C298.028 518.162 316.996 517.595 316.666 516.902C316.335 516.211 297.301 515.5 274.369 515.323C240.68 515.064 232.355 514.446 231.01 512.113C230.093 510.523 229.344 510.095 229.344 511.165ZM339.533 511.681C339.008 512.751 337.218 514.029 335.557 514.524C333.154 515.24 333.411 515.489 336.815 515.74C340.015 515.975 341.094 515.259 341.094 512.896C341.094 509.221 340.84 509.025 339.533 511.681ZM111.554 515.565C111.554 519.097 117.282 520.283 132.57 519.908L147.294 519.55L132.193 518.136C123.887 517.359 115.846 515.997 114.323 515.108C112.656 514.135 111.554 514.318 111.554 515.565ZM157.949 516.828C158.18 517.254 160.181 518.237 162.395 519.013C165.281 520.023 165.995 519.815 164.912 518.271C163.554 516.336 156.939 514.967 157.949 516.828ZM355.44 517.589C357.517 518.044 360.915 518.044 362.991 517.589C365.068 517.136 363.368 516.763 359.215 516.763C355.062 516.763 353.364 517.136 355.44 517.589ZM224.122 532.237C224.848 532.846 225.717 532.77 226.051 532.071C226.386 531.371 225.792 530.874 224.73 530.965C223.558 531.066 223.319 531.565 224.122 532.237ZM291.575 532.237C292.301 532.846 293.169 532.77 293.504 532.071C293.838 531.371 293.244 530.874 292.183 530.965C291.01 531.066 290.771 531.565 291.575 532.237ZM47.213 541.856L47.3036 550.807L48.2489 543.962L49.1932 537.117L77.6058 537.085C96.3213 537.064 105.502 536.357 104.507 535.011C103.626 533.819 91.358 532.955 75.0597 532.936L47.1223 532.905L47.213 541.856ZM178.289 534.463C181.492 534.882 186.476 534.878 189.363 534.455C192.25 534.031 189.628 533.688 183.537 533.692C177.446 533.696 175.084 534.044 178.289 534.463ZM286.394 534.309C285.465 536.253 285.544 577.133 286.478 577.133C286.893 577.133 287.233 567.182 287.233 555.019C287.233 542.856 287.194 532.905 287.149 532.905C287.103 532.905 286.762 533.536 286.394 534.309ZM8.63222 536.538C10.4414 537.005 13.1596 536.997 14.6727 536.517C16.1859 536.034 14.7049 535.651 11.3827 535.664C8.06039 535.674 6.82309 536.068 8.63222 536.538ZM28.276 536.561C30.9227 536.997 35 536.99 37.3367 536.55C39.6734 536.108 37.5079 535.752 32.5244 535.758C27.541 535.765 25.6292 536.127 28.276 536.561ZM140.247 537.142C151.321 537.831 160.496 538.583 160.634 538.81C160.771 539.038 160.892 551.78 160.9 567.129C160.909 583.688 161.357 596.32 162.003 598.195C162.906 600.823 162.988 600.705 162.49 597.496C162.161 595.375 161.892 580.446 161.892 564.324V535.011L141.002 535.449L120.112 535.889L140.247 537.142ZM165.36 544.029C165.088 545.514 165.305 551.91 165.842 558.246C166.762 569.08 166.803 569.2 166.533 560.284C166.375 555.072 166.614 548.675 167.065 546.068C167.925 541.078 166.266 539.092 165.36 544.029ZM46.6532 567.447C46.9109 576.599 47.1223 590.609 47.1223 598.578C47.1223 608.374 47.5301 613.308 48.3808 613.808C49.0734 614.214 51.5782 615.768 53.9481 617.26C57.059 619.218 58.5621 619.334 59.3554 617.674C60.1477 616.017 59.146 614.968 55.7512 613.902C48.6939 611.689 48.1472 609.64 48.0103 584.882C47.9449 573.09 47.5069 560.6 47.0378 557.125C46.4659 552.898 46.3391 556.316 46.6532 567.447ZM403.592 576.255C403.64 578.709 403.879 579.208 404.2 577.529C404.491 576.009 404.455 574.191 404.12 573.492C403.786 572.793 403.549 574.035 403.592 576.255ZM286.226 581.346C285.439 584.012 286.771 584.012 288.743 581.346C290.044 579.587 290.017 579.301 288.55 579.271C287.614 579.254 286.568 580.187 286.226 581.346ZM168.575 584.505C168.894 586.242 169.333 587.664 169.55 587.664C169.768 587.664 169.946 586.242 169.946 584.505C169.946 582.767 169.507 581.346 168.97 581.346C168.435 581.346 168.257 582.767 168.575 584.505ZM41.0818 604.351C41.0818 605.421 39.909 609.212 38.4754 612.776C36.0038 618.921 36.7528 621.598 39.8083 617.54C41.113 615.806 42.7983 602.407 41.7111 602.407C41.3647 602.407 41.0818 603.281 41.0818 604.351ZM159.334 608.867C158.968 610.101 158.912 611.617 159.207 612.236C159.929 613.744 161.892 611.086 161.892 608.601C161.892 605.91 160.154 606.089 159.334 608.867ZM336.563 608.846C334.349 609.804 330.535 610.644 328.09 610.709C325.644 610.777 323.915 611.398 324.246 612.091C325.172 614.031 344.114 610.583 344.114 608.475C344.114 606.32 342.181 606.415 336.563 608.846ZM346.128 609.018C346.128 610.014 347.26 610.832 348.644 610.832C350.029 610.832 351.161 610.467 351.161 610.025C351.161 609.581 350.029 608.763 348.644 608.21C347.26 607.656 346.128 608.02 346.128 609.018ZM26.0641 613.694C27.2672 615.863 32.0211 616.973 32.0211 615.084C32.0211 613.905 30.5865 612.938 28.8327 612.938C27.0799 612.938 25.8336 613.279 26.0641 613.694ZM65.7472 615.153C63.5324 615.922 70.328 616.613 80.8485 616.685C91.3691 616.758 99.5238 616.497 98.97 616.105C96.8468 614.606 69.5769 613.824 65.7472 615.153ZM105.011 615.076C110.146 616.815 122.298 617.776 121.538 616.379C121.308 615.956 116.362 615.105 110.548 614.49C103.42 613.734 101.616 613.923 105.011 615.076ZM226.827 614.993C231.811 615.775 236.848 617.493 238.022 618.814C239.194 620.134 240.448 620.6 240.806 619.848C242.397 616.522 234.639 612.957 226.46 613.256L217.767 613.572L226.827 614.993ZM245.704 614.389C246.674 614.92 248.258 614.92 249.228 614.389C250.197 613.86 249.404 613.426 247.466 613.426C245.528 613.426 244.735 613.86 245.704 614.389ZM256.275 614.332C256.968 614.918 258.1 614.918 258.792 614.332C259.484 613.749 258.918 613.271 257.533 613.271C256.149 613.271 255.583 613.749 256.275 614.332ZM133.429 616.565C135.216 617.03 138.387 617.036 140.476 616.581C142.564 616.124 141.103 615.745 137.227 615.735C133.351 615.726 131.641 616.099 133.429 616.565ZM5.62002 618.694C7.9879 619.14 11.6122 619.134 13.674 618.681C15.7359 618.228 13.7989 617.864 9.36917 617.872C4.93946 617.879 3.25214 618.249 5.62002 618.694ZM150.566 618.544C151.259 619.13 152.391 619.13 153.083 618.544C153.776 617.961 153.209 617.483 151.824 617.483C150.44 617.483 149.874 617.961 150.566 618.544ZM238.165 627.064C239.418 627.567 241.23 627.548 242.193 627.022C243.155 626.495 242.13 626.082 239.915 626.105C237.7 626.129 236.913 626.56 238.165 627.064ZM191.906 629.119C192.632 629.728 193.501 629.652 193.835 628.953C194.169 628.254 193.575 627.757 192.514 627.847C191.342 627.948 191.103 628.447 191.906 629.119ZM225.508 661.905C225.699 696.339 226.071 692.251 226.563 650.317C226.708 637.862 226.487 627.674 226.072 627.676C225.658 627.679 225.403 643.083 225.508 661.905ZM53.6662 631.861L98.97 632.946L99.4734 645.583C99.9345 657.156 100.04 657.622 100.732 651.112C101.148 647.203 101.487 640.804 101.487 636.895V629.787L54.9247 630.282L8.36242 630.775L53.6662 631.861ZM107.527 631.845C106.344 633.405 105.944 639.679 105.679 660.772C105.494 675.585 105.559 687.232 105.826 686.653C106.093 686.073 106.512 674.799 106.758 661.598C107.327 631.008 107.251 631.162 121.119 632.83C126.656 633.496 135.49 633.22 140.75 632.213C149.476 630.547 148.504 630.364 129.676 630.12C118.185 629.97 108.368 630.735 107.527 631.845ZM160.697 631.225C161.423 631.834 162.292 631.758 162.626 631.059C162.96 630.36 162.366 629.863 161.305 629.953C160.132 630.054 159.894 630.554 160.697 631.225ZM100.661 699.576L100.48 709.342L95.9297 710.77C93.4269 711.555 79.2689 712.099 64.4687 711.979C49.6674 711.857 32.1217 712.674 25.4772 713.792L13.3962 715.825L28.4974 714.782C36.8031 714.209 56.3573 713.569 71.9519 713.36C87.5464 713.15 100.598 712.371 100.955 711.625C101.314 710.882 101.435 705.669 101.224 700.041L100.843 689.812L100.661 699.576ZM226.733 699.989C227.062 702.109 227.331 704.243 227.331 704.727C227.331 705.212 228.577 705.547 230.099 705.475L232.868 705.34L230.379 703.264C229.011 702.12 227.496 700.048 227.013 698.658C226.443 697.019 226.345 697.489 226.733 699.989ZM219.87 705.069C219.458 705.932 216.551 707.215 213.409 707.918L207.699 709.201L213.932 709.51C217.423 709.683 220.457 708.832 220.828 707.573C221.641 704.824 220.906 702.901 219.87 705.069ZM234.881 707.733C233.665 708.815 239.922 709.582 250.678 709.673C260.708 709.755 268.743 708.961 269.07 707.853C269.807 705.359 237.677 705.248 234.881 707.733ZM271.628 706.435C271.628 706.89 272.331 707.828 273.19 708.518C274.086 709.237 274.49 708.883 274.138 707.691C273.547 705.688 271.628 704.729 271.628 706.435ZM119.375 711.347C121.184 711.815 123.902 711.806 125.415 711.326C126.929 710.844 125.448 710.46 122.125 710.473C118.803 710.483 117.566 710.877 119.375 711.347ZM140.499 711.214C141.191 711.8 142.324 711.8 143.015 711.214C143.708 710.631 143.141 710.153 141.757 710.153C140.373 710.153 139.807 710.631 140.499 711.214ZM164.102 711.391C170.024 711.762 179.99 711.764 186.25 711.393C192.51 711.023 187.665 710.719 175.483 710.717C163.301 710.715 158.18 711.018 164.102 711.391ZM49.3875 730.262L46.1156 737.836V768.937C46.1156 786.043 46.3904 801.538 46.7267 803.37C47.2099 806.007 48.7342 806.618 54.0256 806.296L60.7135 805.891L54.527 805.148C46.9683 804.242 47.1546 805.196 47.1364 767.366L47.1223 739.613L50.8755 733.141C54.5522 726.8 54.8633 726.663 66.2285 726.349C76.8416 726.054 77.2715 725.896 71.2844 724.487C67.6852 723.643 62.0223 722.891 58.7 722.819C53.0098 722.695 52.4702 723.127 49.3875 730.262ZM86.7149 723.847C87.4196 725.323 101.674 724.873 102.401 723.352C102.637 722.859 99.0536 722.457 94.4397 722.457C89.8257 722.457 86.3494 723.082 86.7149 723.847ZM167.933 724.563C167.102 725.686 166.875 726.604 167.429 726.604C167.983 726.604 169.115 725.686 169.946 724.563C170.777 723.44 171.003 722.522 170.449 722.522C169.896 722.522 168.763 723.44 167.933 724.563ZM194.108 724.687C194.108 725.913 194.561 726.332 195.115 725.616C195.669 724.9 196.122 723.897 196.122 723.386C196.122 722.874 195.669 722.457 195.115 722.457C194.561 722.457 194.108 723.461 194.108 724.687ZM41.2711 732.33C41.8792 736.901 42.1107 748.975 41.8087 760.367C41.4503 773.906 41.5832 778.724 42.2195 775.27C43.5796 767.888 42.895 726.17 41.3969 725.13C40.4919 724.502 40.4617 726.246 41.2711 732.33ZM165.11 764.982C165.001 786.633 165.253 804.79 165.667 805.329C166.082 805.868 166.305 794.314 166.161 779.653C165.676 730.467 165.308 725.321 165.11 764.982ZM11.886 769.67C11.886 771.505 12.6039 773.004 13.4797 773.004C14.3566 773.004 14.8952 771.879 14.6758 770.504C14.0536 766.597 11.886 765.951 11.886 769.67ZM40.657 789.327C40.2392 790.197 39.2808 793.985 38.5277 797.751L37.1575 804.596L26.2836 804.906C16.4094 805.188 15.9654 805.361 21.4502 806.782C24.7725 807.646 29.8948 808.455 32.8325 808.579L38.1743 808.808L40.216 799.156C42.148 790.017 42.3362 785.839 40.657 789.327ZM156.765 799.567C156.024 801.433 154.496 803.743 153.37 804.697C151.508 806.277 151.56 806.448 153.928 806.57C155.767 806.662 156.872 805.152 157.682 801.437C159.005 795.365 158.688 794.718 156.765 799.567ZM124.894 806.047C125.863 806.578 127.448 806.578 128.418 806.047C129.387 805.519 128.594 805.085 126.656 805.085C124.718 805.085 123.924 805.519 124.894 806.047ZM197.883 805.99C198.576 806.576 199.709 806.576 200.4 805.99C201.093 805.407 200.526 804.929 199.142 804.929C197.758 804.929 197.192 805.407 197.883 805.99ZM245.734 806.146C248.381 806.582 252.458 806.576 254.795 806.136C257.132 805.693 254.966 805.338 249.983 805.344C244.999 805.35 243.088 805.712 245.734 806.146ZM203.987 814.459C204.713 815.068 205.582 814.992 205.916 814.293C206.25 813.594 205.657 813.097 204.595 813.187C203.423 813.288 203.184 813.787 203.987 814.459ZM5.34216 817.117C12.2505 820.31 54.5592 822.397 56.768 819.653C58.2641 817.797 55.5207 817.368 44.6055 817.757C36.8535 818.033 23.9419 817.583 15.9131 816.757C6.87544 815.828 2.84944 815.965 5.34216 817.117ZM63.9854 816.521C64.6781 817.107 65.8107 817.107 66.5023 816.521C67.195 815.938 66.6282 815.46 65.2439 815.46C63.8596 815.46 63.2938 815.938 63.9854 816.521ZM82.3586 819.03C82.3586 820.017 84.7366 820.417 87.6441 819.916C95.4041 818.579 95.7998 817.589 88.6508 817.399C85.1906 817.309 82.3586 818.042 82.3586 819.03ZM238.217 818.672C238.943 819.28 239.812 819.204 240.146 818.505C240.48 817.806 239.886 817.309 238.825 817.399C237.652 817.5 237.413 818 238.217 818.672ZM227.828 826.184C227.499 829.95 227.382 842.981 227.57 855.143L227.913 877.258L228.125 852.372C228.242 838.686 228.807 825.653 229.38 823.412C230.051 820.788 230.067 819.339 229.425 819.339C228.877 819.339 228.158 822.418 227.828 826.184ZM109.936 848.825C109.936 864.463 110.094 870.859 110.288 863.041C110.481 855.224 110.481 842.427 110.288 834.609C110.094 826.791 109.936 833.187 109.936 848.825ZM105.71 830.923C105.73 834.398 105.956 835.565 106.212 833.516C106.467 831.466 106.45 828.623 106.174 827.197C105.899 825.771 105.69 827.448 105.71 830.923ZM224.698 853.037C224.698 867.517 224.859 873.442 225.056 866.201C225.253 858.962 225.253 847.115 225.056 839.874C224.859 832.635 224.698 838.558 224.698 853.037ZM104.507 890.596C104.507 893.107 104.394 895.347 104.255 895.579C104.117 895.809 94.49 896.556 82.862 897.243L61.7202 898.488L83.0946 898.93L104.469 899.372L105.112 894.008C105.467 891.059 105.475 888.058 105.131 887.34C104.788 886.622 104.507 888.088 104.507 890.596ZM223.757 889.012C223.386 890.265 221.661 893.104 219.922 895.322C218.183 897.542 217.319 899.36 218.002 899.364C219.291 899.372 226.356 886.906 225.125 886.797C224.742 886.763 224.126 887.759 223.757 889.012ZM46.619 895.301L38.565 896.493L48.3808 896.881C53.779 897.091 58.1966 896.902 58.1966 896.46C58.1966 894.585 54.1696 894.181 46.619 895.301ZM110.548 896.896C110.548 900.211 114.608 901.434 124.642 901.146L134.206 900.87L123.429 899.25C117.501 898.359 112.178 897.02 111.6 896.272C111.021 895.524 110.548 895.805 110.548 896.896ZM16.6681 898.66C17.3608 899.246 18.4934 899.246 19.185 898.66C19.8776 898.077 19.3108 897.599 17.9266 897.599C16.5423 897.599 15.9765 898.077 16.6681 898.66ZM174.792 898.705C175.517 899.313 176.386 899.238 176.72 898.538C177.055 897.839 176.461 897.342 175.4 897.433C174.227 897.534 173.988 898.033 174.792 898.705ZM142.009 900.823C142.978 901.354 144.563 901.354 145.532 900.823C146.502 900.295 145.708 899.861 143.77 899.861C141.832 899.861 141.039 900.295 142.009 900.823ZM7.10398 911.411C8.62719 911.893 11.1189 911.893 12.6411 911.411C14.1643 910.929 12.918 910.535 9.87254 910.535C6.82712 910.535 5.58177 910.929 7.10398 911.411ZM29.2525 911.354C30.221 911.885 31.8076 911.885 32.7761 911.354C33.7446 910.825 32.9523 910.392 31.0143 910.392C29.0763 910.392 28.284 910.825 29.2525 911.354ZM38.8287 911.392C40.0811 911.895 41.8933 911.876 42.8557 911.35C43.8182 910.823 42.7933 910.411 40.5785 910.434C38.3636 910.457 37.5763 910.889 38.8287 911.392ZM45.6515 914.248C46.0149 915.48 46.6522 930.88 47.067 948.473L47.821 980.459L47.961 950.973C48.1039 920.988 47.6378 912.009 45.9384 912.009C45.4169 912.009 45.288 913.016 45.6515 914.248ZM52.8145 913.589C52.5588 914.459 54.4565 914.886 57.0338 914.539C64.3861 913.551 65.2781 912.521 59.0111 912.253C55.8599 912.119 53.0712 912.719 52.8145 913.589ZM51.3608 956.623C51.1272 993.175 50.5362 990.018 58.1966 993.184C60.1346 993.984 61.4665 994.079 61.1575 993.392C60.8474 992.706 58.8087 991.368 56.6271 990.423L52.6595 988.702L52.1158 956.147L51.5732 923.593L51.3608 956.623ZM46.4156 986.24C45.4854 990.509 44.3346 991.966 41.3839 992.609L37.5582 993.441L41.1412 993.795C45.4169 994.218 48.4875 990.117 47.9841 984.656C47.675 981.295 47.4415 981.531 46.4156 986.24ZM4.33541 989.936C0.90138 991.223 1.34636 991.461 7.35566 991.558C11.2317 991.621 16.6681 990.935 19.4367 990.033C24.104 988.512 23.8835 988.394 16.4164 988.411C11.9867 988.42 6.55026 989.106 4.33541 989.936ZM32.8396 991.375C33.5654 991.983 34.4343 991.908 34.7685 991.208C35.1027 990.509 34.5088 990.012 33.4476 990.103C32.2748 990.204 32.0362 990.703 32.8396 991.375ZM137.542 991.375C138.268 991.983 139.136 991.908 139.471 991.208C139.805 990.509 139.211 990.012 138.15 990.103C136.977 990.204 136.738 990.703 137.542 991.375ZM73.1096 993.481C73.8355 994.09 74.7043 994.014 75.0386 993.314C75.3728 992.615 74.7788 992.118 73.7177 992.209C72.5448 992.31 72.3062 992.809 73.1096 993.481ZM117.407 993.481C118.133 994.09 119.001 994.014 119.336 993.314C119.67 992.615 119.076 992.118 118.015 992.209C116.842 992.31 116.603 992.809 117.407 993.481ZM144.041 993.502C145.021 994.037 146.38 994.001 147.062 993.424C147.743 992.847 146.942 992.411 145.281 992.453C143.619 992.495 143.062 992.967 144.041 993.502ZM10.6669 997.815C14.1492 998.228 19.5857 998.226 22.7479 997.809C25.9101 997.392 23.061 997.055 16.4164 997.059C9.77187 997.063 7.18452 997.404 10.6669 997.815ZM51.9678 999.799C52.6937 1000.41 53.5625 1000.33 53.8968 999.633C54.231 998.934 53.637 998.437 52.5759 998.527C51.4031 998.628 51.1645 999.127 51.9678 999.799ZM67.0178 999.85C68.2702 1000.35 70.0823 1000.33 71.0448 999.808C72.0072 999.281 70.9824 998.868 68.7675 998.892C66.5527 998.915 65.7654 999.346 67.0178 999.85ZM107.179 1004.86C107.818 1006.5 108.568 1010.21 108.845 1013.1C109.196 1016.77 109.301 1016.17 109.194 1011.16C109.1 1006.84 108.433 1003.54 107.527 1002.92C106.336 1002.11 106.263 1002.52 107.179 1004.86ZM2.82528 1076.12C1.74302 1077.71 5.45089 1078.34 15.9131 1078.36C23.9419 1078.38 46.9643 1079.43 67.0731 1080.69C87.182 1081.96 104.738 1082.41 106.085 1081.71C107.509 1080.96 108.528 1078.9 108.519 1076.77C108.506 1073.81 108.335 1073.69 107.602 1076.11C106.838 1078.63 100.389 1078.87 65.1251 1077.67C42.2577 1076.89 19.2253 1075.73 13.9418 1075.09C7.96072 1074.36 3.76559 1074.75 2.82528 1076.12ZM129.947 1081.96C130.926 1082.49 132.285 1082.46 132.967 1081.88C133.649 1081.3 132.847 1080.87 131.186 1080.91C129.525 1080.95 128.967 1081.42 129.947 1081.96ZM144.589 1081.94C145.315 1082.55 146.184 1082.47 146.518 1081.77C146.852 1081.07 146.258 1080.58 145.197 1080.67C144.024 1080.77 143.786 1081.27 144.589 1081.94ZM0.81178 1091.06C-0.250343 1092.52 0.346661 1092.73 2.82528 1091.78C7.1674 1090.11 7.98589 1088.91 4.75522 1088.96C3.41725 1088.98 1.64235 1089.92 0.81178 1091.06ZM36.8152 1090.41C38.0676 1090.92 39.8798 1090.9 40.8422 1090.37C41.8047 1089.85 40.7798 1089.43 38.565 1089.46C36.3501 1089.48 35.5628 1089.91 36.8152 1090.41ZM55.2559 1092.89C53.3622 1093.6 51.6064 1095.61 51.3547 1097.35C51.0004 1099.8 51.1806 1099.95 52.1531 1098.04C52.8437 1096.68 54.0629 1096.1 54.8633 1096.74C55.6636 1097.38 57.3077 1096.86 58.5158 1095.58C59.7249 1094.3 62.5256 1092.91 64.7405 1092.49C68.1786 1091.85 68.0316 1091.73 63.7337 1091.66C60.9652 1091.62 57.1506 1092.17 55.2559 1092.89ZM54.9881 1166.18C55.714 1166.79 56.5828 1166.72 56.917 1166.02C57.2513 1165.32 56.6573 1164.82 55.5962 1164.91C54.4233 1165.01 54.1847 1165.51 54.9881 1166.18ZM8.62618 1168.34C9.87858 1168.84 11.6907 1168.83 12.6532 1168.3C13.6156 1167.77 12.5908 1167.36 10.3759 1167.38C8.16107 1167.41 7.37379 1167.84 8.62618 1168.34ZM20.229 1176.83C23.4325 1177.25 28.4159 1177.25 31.3033 1176.83C34.1896 1176.4 31.568 1176.06 25.4772 1176.06C19.3863 1176.07 17.0245 1176.42 20.229 1176.83ZM42.1721 1176.03C42.4037 1176.44 44.1776 1177.39 46.1156 1178.13C48.5942 1179.08 49.1912 1178.87 48.1291 1177.41C46.7639 1175.54 41.1745 1174.24 42.1721 1176.03ZM56.4348 1176.73C57.4033 1177.26 58.9899 1177.26 59.9584 1176.73C60.9269 1176.2 60.1346 1175.76 58.1966 1175.76C56.2586 1175.76 55.4663 1176.2 56.4348 1176.73ZM3.83203 1188.04C3.83203 1190.42 4.28507 1191.79 4.83879 1191.07C6.14555 1189.38 6.14555 1183.7 4.83879 1183.7C4.28507 1183.7 3.83203 1185.65 3.83203 1188.04Z" fill="#A0A0A0"/>
</svg>
